<?xml version="1.0" encoding="utf-8"?>
<!-- Generator: Adobe Illustrator 26.5.2, SVG Export Plug-In . SVG Version: 6.00 Build 0)  -->
<svg version="1.1" id="Layer_1" xmlns="http://www.w3.org/2000/svg" xmlns:xlink="http://www.w3.org/1999/xlink" x="0px" y="0px"
	 viewBox="0 0 320 320" style="enable-background:new 0 0 320 320;" xml:space="preserve">
<style type="text/css">
	.st0{fill:#FFFFFF;}
</style>
<g>
	<polygon class="st0" points="219.3,80.37 199.38,80.37 199.38,113.47 235.66,221.88 163.53,221.88 185.36,155.48 155.05,155.48 
		100.84,315.31 132.99,315.31 154.57,249.45 244.4,249.45 265.55,315.31 299.4,315.31 	"/>
	<g>
		<path class="st0" d="M133.07,220.47l-9.39,27.51c4.05,0.14,6.43-0.01,6.43-0.01l9.52-28.06c-2.26,0.14-4.43,0.21-6.55,0.23
			L133.07,220.47z"/>
		<path class="st0" d="M129.05,4.71C79.13,3.87,54.16,30.1,39.36,51.88c-14.81,21.79-31.52,86.09-4.02,143.21
			c16.97,35.25,49.09,47.13,71.2,51.06l9.32-27.15c-34.7-5.46-46.25-29.13-54.36-46.76c-9.73-21.15-10.01-66.56,0-92.09
			c10.01-25.52,28.98-48.23,68.32-48.09c39.34,0.14,67.76,30.67,67.76,30.67h2.75V24.6C200.33,24.6,178.97,5.56,129.05,4.71z"/>
	</g>
</g>
</svg>
